STARTFONT 2.1
COMMENT
COMMENT Converted from OpenType font "Formula1-Bold_web_0.ttf" by "otf2bdf 3.0".
COMMENT
FONT -FreeType-Formula1 Display Bold-Bold-R-Normal--16-160-72-72-P-95-ISO10646-1
SIZE 16 72 72
FONTBOUNDINGBOX 19 17 0 -3
STARTPROPERTIES 19
FOUNDRY "FreeType"
FAMILY_NAME "Formula1 Display Bold"
WEIGHT_NAME "Bold"
SLANT "R"
SETWIDTH_NAME "Normal"
ADD_STYLE_NAME ""
PIXEL_SIZE 16
POINT_SIZE 160
RESOLUTION_X 72
RESOLUTION_Y 72
SPACING "P"
AVERAGE_WIDTH 95
CHARSET_REGISTRY "ISO10646"
CHARSET_ENCODING "1"
FONT_ASCENT 13
FONT_DESCENT 2
COPYRIGHT "Copyright (c) 2017 Marc Rouault / W+K. All rights reserved."
_OTF_FONTFILE "Formula1-Bold_web_0.ttf"
_OTF_PSNAME "Formula1-Display-Bold"
ENDPROPERTIES
CHARS 95
STARTCHAR 0020
ENCODING 32
SWIDTH 250 0
DWIDTH 4 0
BBX 0 0 0 0
BITMAP
ENDCHAR
STARTCHAR 0021
ENCODING 33
SWIDTH 312 0
DWIDTH 5 0
BBX 3 12 1 0
BITMAP
E0
E0
E0
E0
E0
E0
E0
E0
00
E0
E0
E0
ENDCHAR
STARTCHAR 0022
ENCODING 34
SWIDTH 562 0
DWIDTH 9 0
BBX 7 5 1 7
BITMAP
EE
EC
EC
CC
CC
ENDCHAR
STARTCHAR 0023
ENCODING 35
SWIDTH 812 0
DWIDTH 13 0
BBX 12 12 1 0
BITMAP
0CE0
1CC0
7FF0
7FF0
1980
3980
3B80
FFE0
FFE0
7300
7700
6700
ENDCHAR
STARTCHAR 0024
ENCODING 36
SWIDTH 750 0
DWIDTH 12 0
BBX 10 16 1 -2
BITMAP
0C00
0C00
7FC0
FFC0
EC00
EC00
FC00
7F80
3FC0
0FC0
0DC0
0DC0
FFC0
FF00
0C00
0C00
ENDCHAR
STARTCHAR 0025
ENCODING 37
SWIDTH 875 0
DWIDTH 14 0
BBX 12 12 1 0
BITMAP
F870
FCE0
CCE0
FCC0
F9C0
0180
39E0
33F0
7330
7330
63F0
E1E0
ENDCHAR
STARTCHAR 0026
ENCODING 38
SWIDTH 812 0
DWIDTH 13 0
BBX 12 12 1 0
BITMAP
1FC0
3FC0
7800
3800
3800
7CF0
FEE0
EFC0
C780
E7C0
FFE0
7EF0
ENDCHAR
STARTCHAR 0027
ENCODING 39
SWIDTH 312 0
DWIDTH 5 0
BBX 3 5 1 7
BITMAP
E0
E0
E0
C0
C0
ENDCHAR
STARTCHAR 0028
ENCODING 40
SWIDTH 437 0
DWIDTH 7 0
BBX 5 14 1 -2
BITMAP
38
78
F0
E0
E0
E0
E0
E0
E0
E0
E0
F0
78
38
ENDCHAR
STARTCHAR 0029
ENCODING 41
SWIDTH 437 0
DWIDTH 7 0
BBX 5 14 1 -2
BITMAP
E0
F0
78
38
38
38
38
38
38
38
38
78
F0
E0
ENDCHAR
STARTCHAR 002A
ENCODING 42
SWIDTH 500 0
DWIDTH 8 0
BBX 6 6 1 6
BITMAP
6C
78
FC
FC
78
4C
ENDCHAR
STARTCHAR 002B
ENCODING 43
SWIDTH 562 0
DWIDTH 9 0
BBX 8 8 1 2
BITMAP
38
38
38
FF
FF
38
38
38
ENDCHAR
STARTCHAR 002C
ENCODING 44
SWIDTH 312 0
DWIDTH 5 0
BBX 4 5 0 -2
BITMAP
70
70
70
70
E0
ENDCHAR
STARTCHAR 002D
ENCODING 45
SWIDTH 375 0
DWIDTH 6 0
BBX 4 2 1 3
BITMAP
F0
F0
ENDCHAR
STARTCHAR 002E
ENCODING 46
SWIDTH 312 0
DWIDTH 5 0
BBX 3 3 1 0
BITMAP
E0
E0
E0
ENDCHAR
STARTCHAR 002F
ENCODING 47
SWIDTH 375 0
DWIDTH 6 0
BBX 6 14 0 -2
BITMAP
1C
1C
1C
18
38
38
38
30
70
70
70
60
E0
E0
ENDCHAR
STARTCHAR 0030
ENCODING 48
SWIDTH 875 0
DWIDTH 14 0
BBX 12 12 1 0
BITMAP
3F80
7FC0
F1E0
E0F0
E0F0
E0F0
E0F0
E0F0
E0E0
F1E0
7FC0
1F80
ENDCHAR
STARTCHAR 0031
ENCODING 49
SWIDTH 625 0
DWIDTH 10 0
BBX 8 12 1 0
BITMAP
F8
FC
1C
1C
1C
1C
1C
1C
1C
1C
FF
FF
ENDCHAR
STARTCHAR 0032
ENCODING 50
SWIDTH 687 0
DWIDTH 11 0
BBX 11 12 0 0
BITMAP
7F80
7FC0
01E0
01C0
03C0
0F80
3F00
7C00
7000
7000
FFC0
FFC0
ENDCHAR
STARTCHAR 0033
ENCODING 51
SWIDTH 687 0
DWIDTH 11 0
BBX 10 12 1 0
BITMAP
FFC0
FFC0
0780
0F00
1C00
3F00
7FC0
03C0
01C0
03C0
FF80
FF00
ENDCHAR
STARTCHAR 0034
ENCODING 52
SWIDTH 812 0
DWIDTH 13 0
BBX 13 12 0 0
BITMAP
03C0
07E0
0EE0
1CE0
3CE0
78E0
70E0
F0E0
FFF8
7FF8
00E0
00E0
ENDCHAR
STARTCHAR 0035
ENCODING 53
SWIDTH 687 0
DWIDTH 11 0
BBX 10 12 1 0
BITMAP
FFC0
FFC0
E000
E000
E000
FF80
FFC0
03C0
01C0
03C0
FF80
FF00
ENDCHAR
STARTCHAR 0036
ENCODING 54
SWIDTH 750 0
DWIDTH 12 0
BBX 11 12 1 0
BITMAP
1FC0
7FC0
F000
E000
E000
FF80
FFC0
E1E0
E1E0
F1C0
7FC0
3F80
ENDCHAR
STARTCHAR 0037
ENCODING 55
SWIDTH 687 0
DWIDTH 11 0
BBX 10 12 1 0
BITMAP
FF80
FF80
03C0
0380
0780
0700
0F00
1E00
1C00
3C00
3800
7800
ENDCHAR
STARTCHAR 0038
ENCODING 56
SWIDTH 750 0
DWIDTH 12 0
BBX 12 12 0 0
BITMAP
3FC0
7FE0
70E0
70E0
70E0
3FC0
7FE0
70E0
F0F0
70E0
7FE0
3FC0
ENDCHAR
STARTCHAR 0039
ENCODING 57
SWIDTH 750 0
DWIDTH 12 0
BBX 10 12 1 0
BITMAP
7F00
FF80
E3C0
E1C0
E1C0
FFC0
7FC0
01C0
01C0
03C0
FF80
FF00
ENDCHAR
STARTCHAR 003A
ENCODING 58
SWIDTH 312 0
DWIDTH 5 0
BBX 3 3 1 0
BITMAP
E0
E0
E0
ENDCHAR
STARTCHAR 003B
ENCODING 59
SWIDTH 312 0
DWIDTH 5 0
BBX 4 5 0 -2
BITMAP
70
70
70
70
E0
ENDCHAR
STARTCHAR 003C
ENCODING 60
SWIDTH 500 0
DWIDTH 8 0
BBX 5 8 1 2
BITMAP
08
38
78
F0
F0
78
18
08
ENDCHAR
STARTCHAR 003D
ENCODING 61
SWIDTH 500 0
DWIDTH 8 0
BBX 7 6 1 3
BITMAP
FE
FE
00
00
FE
FE
ENDCHAR
STARTCHAR 003E
ENCODING 62
SWIDTH 500 0
DWIDTH 8 0
BBX 6 8 1 2
BITMAP
80
E0
F8
3C
3C
F8
E0
80
ENDCHAR
STARTCHAR 003F
ENCODING 63
SWIDTH 625 0
DWIDTH 10 0
BBX 8 12 1 0
BITMAP
FC
FF
07
07
07
7F
7E
00
00
78
78
78
ENDCHAR
STARTCHAR 0040
ENCODING 64
SWIDTH 812 0
DWIDTH 13 0
BBX 11 11 1 0
BITMAP
FFC0
FFE0
00E0
0060
7E60
FE60
C660
C660
E660
FFE0
7FE0
ENDCHAR
STARTCHAR 0041
ENCODING 65
SWIDTH 875 0
DWIDTH 14 0
BBX 14 12 0 0
BITMAP
0780
07C0
0FC0
0EE0
1CE0
1CE0
3870
3FF0
3FF8
7038
703C
E01C
ENDCHAR
STARTCHAR 0042
ENCODING 66
SWIDTH 812 0
DWIDTH 13 0
BBX 11 12 1 0
BITMAP
FF80
FFE0
E1E0
E0E0
E1E0
FFC0
FFC0
E0E0
E0E0
E0E0
FFE0
FFC0
ENDCHAR
STARTCHAR 0043
ENCODING 67
SWIDTH 750 0
DWIDTH 12 0
BBX 10 12 1 0
BITMAP
1FC0
7FC0
F000
E000
E000
E000
E000
E000
E000
F000
7FC0
1FC0
ENDCHAR
STARTCHAR 0044
ENCODING 68
SWIDTH 875 0
DWIDTH 14 0
BBX 12 12 1 0
BITMAP
FF80
FFE0
E1E0
E0F0
E070
E070
E070
E070
E0F0
E1E0
FFE0
FF80
ENDCHAR
STARTCHAR 0045
ENCODING 69
SWIDTH 750 0
DWIDTH 12 0
BBX 10 12 1 0
BITMAP
FFC0
FFC0
E000
E000
E000
FFC0
FFC0
E000
E000
E000
FFC0
FFC0
ENDCHAR
STARTCHAR 0046
ENCODING 70
SWIDTH 687 0
DWIDTH 11 0
BBX 10 12 1 0
BITMAP
FFC0
FFC0
E000
E000
E000
FFC0
FFC0
E000
E000
E000
E000
E000
ENDCHAR
STARTCHAR 0047
ENCODING 71
SWIDTH 875 0
DWIDTH 14 0
BBX 12 12 1 0
BITMAP
3FF0
7FF0
F000
E000
E000
E3F0
E3F0
E070
E070
F0F0
7FE0
3FC0
ENDCHAR
STARTCHAR 0048
ENCODING 72
SWIDTH 875 0
DWIDTH 14 0
BBX 12 12 1 0
BITMAP
E070
E070
E070
E070
E070
FFF0
FFF0
E070
E070
E070
E070
E070
ENDCHAR
STARTCHAR 0049
ENCODING 73
SWIDTH 312 0
DWIDTH 5 0
BBX 3 12 1 0
BITMAP
E0
E0
E0
E0
E0
E0
E0
E0
E0
E0
E0
E0
ENDCHAR
STARTCHAR 004A
ENCODING 74
SWIDTH 625 0
DWIDTH 10 0
BBX 8 12 1 0
BITMAP
07
07
07
07
07
07
07
07
07
FF
FE
FC
ENDCHAR
STARTCHAR 004B
ENCODING 75
SWIDTH 812 0
DWIDTH 13 0
BBX 12 12 1 0
BITMAP
E0F0
E1C0
E3C0
E780
E700
FE00
FF00
E700
E380
E3C0
E1E0
E0F0
ENDCHAR
STARTCHAR 004C
ENCODING 76
SWIDTH 687 0
DWIDTH 11 0
BBX 9 12 1 0
BITMAP
E000
E000
E000
E000
E000
E000
E000
E000
E000
FF80
FF80
FF80
ENDCHAR
STARTCHAR 004D
ENCODING 77
SWIDTH 1187 0
DWIDTH 19 0
BBX 17 12 1 0
BITMAP
3C1E00
7C3F00
6E3F00
EE3700
EE7700
EE7700
E77700
E77380
E77380
E76380
E3E380
E1C380
ENDCHAR
STARTCHAR 004E
ENCODING 78
SWIDTH 1000 0
DWIDTH 16 0
BBX 14 12 1 0
BITMAP
783C
7C3C
EE3C
EE3C
E73C
E73C
E7BC
E3BC
E3FC
E1F8
E1F8
E0F0
ENDCHAR
STARTCHAR 004F
ENCODING 79
SWIDTH 875 0
DWIDTH 14 0
BBX 12 12 1 0
BITMAP
1F80
7FE0
F0F0
E070
E070
E070
E070
E070
E070
F0F0
7FE0
1F80
ENDCHAR
STARTCHAR 0050
ENCODING 80
SWIDTH 750 0
DWIDTH 12 0
BBX 11 12 1 0
BITMAP
FF80
FFC0
E1E0
E0E0
E0E0
E1E0
FFC0
FF80
E000
E000
E000
E000
ENDCHAR
STARTCHAR 0051
ENCODING 81
SWIDTH 875 0
DWIDTH 14 0
BBX 12 14 1 -2
BITMAP
1F80
7FE0
F0F0
E070
E070
E070
E070
E070
E070
F0F0
7FE0
1F80
0380
01C0
ENDCHAR
STARTCHAR 0052
ENCODING 82
SWIDTH 812 0
DWIDTH 13 0
BBX 12 12 1 0
BITMAP
FFC0
FFE0
E0F0
E0F0
E0F0
EFE0
EFC0
EF00
E780
E3C0
E1C0
E0F0
ENDCHAR
STARTCHAR 0053
ENCODING 83
SWIDTH 750 0
DWIDTH 12 0
BBX 10 12 1 0
BITMAP
7FC0
FFC0
E000
E000
FC00
7F80
3FC0
07C0
01C0
01C0
FFC0
FF00
ENDCHAR
STARTCHAR 0054
ENCODING 84
SWIDTH 812 0
DWIDTH 13 0
BBX 13 12 0 0
BITMAP
FFF8
FFF8
0700
0700
0700
0700
0700
0700
0700
0700
0700
0700
ENDCHAR
STARTCHAR 0055
ENCODING 85
SWIDTH 875 0
DWIDTH 14 0
BBX 12 12 1 0
BITMAP
E0F0
E0F0
E0F0
E0F0
E0F0
E0F0
E0F0
E0F0
E0F0
FFE0
7FE0
3FC0
ENDCHAR
STARTCHAR 0056
ENCODING 86
SWIDTH 812 0
DWIDTH 13 0
BBX 13 12 0 0
BITMAP
F078
7070
7070
7870
38E0
38E0
38E0
1DC0
1DC0
1DC0
0F80
0700
ENDCHAR
STARTCHAR 0057
ENCODING 87
SWIDTH 1250 0
DWIDTH 20 0
BBX 19 12 0 0
BITMAP
F0F0E0
71F0E0
71B8E0
73B8E0
73B9C0
73B9C0
739DC0
3B9DC0
3B1DC0
3F1DC0
3F0F80
1E0700
ENDCHAR
STARTCHAR 0058
ENCODING 88
SWIDTH 812 0
DWIDTH 13 0
BBX 13 12 0 0
BITMAP
F078
7870
3CE0
1DE0
1FC0
0F80
0F80
0FC0
1DE0
38E0
7870
F078
ENDCHAR
STARTCHAR 0059
ENCODING 89
SWIDTH 812 0
DWIDTH 13 0
BBX 13 12 0 0
BITMAP
F078
78F0
38E0
3DE0
1FC0
0F80
0F80
0700
0700
0700
0700
0700
ENDCHAR
STARTCHAR 005A
ENCODING 90
SWIDTH 750 0
DWIDTH 12 0
BBX 11 12 0 0
BITMAP
7FC0
7FE0
00E0
01E0
07C0
1F80
3F00
7C00
F000
F000
7FE0
3FE0
ENDCHAR
STARTCHAR 005B
ENCODING 91
SWIDTH 437 0
DWIDTH 7 0
BBX 5 14 1 -2
BITMAP
F8
F8
E0
E0
E0
E0
E0
E0
E0
E0
E0
E0
F8
F8
ENDCHAR
STARTCHAR 005C
ENCODING 92
SWIDTH 375 0
DWIDTH 6 0
BBX 6 14 0 -2
BITMAP
E0
E0
60
70
70
70
30
38
38
38
18
1C
1C
1C
ENDCHAR
STARTCHAR 005D
ENCODING 93
SWIDTH 437 0
DWIDTH 7 0
BBX 5 14 1 -2
BITMAP
F8
F8
38
38
38
38
38
38
38
38
38
38
F8
F8
ENDCHAR
STARTCHAR 005E
ENCODING 94
SWIDTH 687 0
DWIDTH 11 0
BBX 6 3 3 6
BITMAP
70
78
DC
ENDCHAR
STARTCHAR 005F
ENCODING 95
SWIDTH 437 0
DWIDTH 7 0
BBX 7 2 0 -3
BITMAP
FE
FE
ENDCHAR
STARTCHAR 0060
ENCODING 96
SWIDTH 687 0
DWIDTH 11 0
BBX 4 3 3 11
BITMAP
E0
60
70
ENDCHAR
STARTCHAR 0061
ENCODING 97
SWIDTH 687 0
DWIDTH 11 0
BBX 10 10 0 0
BITMAP
7F00
7F80
03C0
0FC0
1FC0
3DC0
71C0
F1C0
7FC0
7FC0
ENDCHAR
STARTCHAR 0062
ENCODING 98
SWIDTH 750 0
DWIDTH 12 0
BBX 11 12 1 0
BITMAP
E000
E000
FF80
FFC0
E1C0
E1C0
E1E0
E1E0
E1C0
E3C0
FFC0
FF80
ENDCHAR
STARTCHAR 0063
ENCODING 99
SWIDTH 625 0
DWIDTH 10 0
BBX 8 10 1 0
BITMAP
3F
FF
F0
E0
E0
E0
E0
E0
FF
3F
ENDCHAR
STARTCHAR 0064
ENCODING 100
SWIDTH 750 0
DWIDTH 12 0
BBX 10 12 1 0
BITMAP
01C0
01C0
7FC0
FFC0
E1C0
E1C0
E1C0
E1C0
E1C0
F1C0
FFC0
7FC0
ENDCHAR
STARTCHAR 0065
ENCODING 101
SWIDTH 687 0
DWIDTH 11 0
BBX 10 10 1 0
BITMAP
3F00
FF80
E380
E180
FFC0
FFC0
E000
E000
FF80
3F80
ENDCHAR
STARTCHAR 0066
ENCODING 102
SWIDTH 500 0
DWIDTH 8 0
BBX 8 13 0 0
BITMAP
1F
3F
38
FF
FF
38
38
38
38
38
38
38
38
ENDCHAR
STARTCHAR 0067
ENCODING 103
SWIDTH 750 0
DWIDTH 12 0
BBX 10 12 1 -2
BITMAP
7FC0
FFC0
E1C0
E1C0
E1C0
E1C0
FFC0
7FC0
01C0
03C0
FF80
FF00
ENDCHAR
STARTCHAR 0068
ENCODING 104
SWIDTH 750 0
DWIDTH 12 0
BBX 10 12 1 0
BITMAP
E000
E000
FF00
FF80
E3C0
E1C0
E1C0
E1C0
E1C0
E1C0
E1C0
E1C0
ENDCHAR
STARTCHAR 0069
ENCODING 105
SWIDTH 312 0
DWIDTH 5 0
BBX 3 12 1 0
BITMAP
E0
E0
E0
E0
E0
E0
E0
E0
E0
E0
E0
E0
ENDCHAR
STARTCHAR 006A
ENCODING 106
SWIDTH 312 0
DWIDTH 5 0
BBX 4 14 0 -2
BITMAP
70
70
70
70
70
70
70
70
70
70
70
70
F0
E0
ENDCHAR
STARTCHAR 006B
ENCODING 107
SWIDTH 687 0
DWIDTH 11 0
BBX 10 12 1 0
BITMAP
E000
E000
E3C0
E380
E700
EF00
FE00
FE00
EE00
E700
E380
E3C0
ENDCHAR
STARTCHAR 006C
ENCODING 108
SWIDTH 312 0
DWIDTH 5 0
BBX 3 12 1 0
BITMAP
E0
E0
E0
E0
E0
E0
E0
E0
E0
E0
E0
E0
ENDCHAR
STARTCHAR 006D
ENCODING 109
SWIDTH 1062 0
DWIDTH 17 0
BBX 15 10 1 0
BITMAP
FFFC
FFFE
E38E
E38E
E38E
E38E
E38E
E38E
E38E
E38E
ENDCHAR
STARTCHAR 006E
ENCODING 110
SWIDTH 750 0
DWIDTH 12 0
BBX 10 10 1 0
BITMAP
FF00
FF80
E3C0
E1C0
E1C0
E1C0
E1C0
E1C0
E1C0
E1C0
ENDCHAR
STARTCHAR 006F
ENCODING 111
SWIDTH 750 0
DWIDTH 12 0
BBX 10 10 1 0
BITMAP
3F00
7F80
E3C0
E1C0
E1C0
E1C0
E1C0
E3C0
7F80
3F00
ENDCHAR
STARTCHAR 0070
ENCODING 112
SWIDTH 750 0
DWIDTH 12 0
BBX 11 12 1 -2
BITMAP
FF80
FFC0
E1C0
E1C0
E1E0
E1E0
E1C0
E1C0
FFC0
FF80
E000
E000
ENDCHAR
STARTCHAR 0071
ENCODING 113
SWIDTH 750 0
DWIDTH 12 0
BBX 10 12 1 -2
BITMAP
7FC0
FFC0
E1C0
E1C0
E1C0
E1C0
E1C0
E1C0
FFC0
7FC0
01C0
01C0
ENDCHAR
STARTCHAR 0072
ENCODING 114
SWIDTH 500 0
DWIDTH 8 0
BBX 6 10 1 0
BITMAP
3C
7C
E0
E0
E0
E0
E0
E0
E0
E0
ENDCHAR
STARTCHAR 0073
ENCODING 115
SWIDTH 625 0
DWIDTH 10 0
BBX 9 10 1 0
BITMAP
7F00
FF00
C000
F000
FE00
7F00
0780
0380
FF00
FE00
ENDCHAR
STARTCHAR 0074
ENCODING 116
SWIDTH 562 0
DWIDTH 9 0
BBX 8 12 0 0
BITMAP
38
38
FF
FF
38
38
38
38
38
38
3F
1F
ENDCHAR
STARTCHAR 0075
ENCODING 117
SWIDTH 750 0
DWIDTH 12 0
BBX 10 10 1 0
BITMAP
E1C0
E1C0
E1C0
E1C0
E1C0
E1C0
E1C0
FFC0
7FC0
3FC0
ENDCHAR
STARTCHAR 0076
ENCODING 118
SWIDTH 750 0
DWIDTH 12 0
BBX 11 10 0 0
BITMAP
E0E0
70E0
70E0
71C0
39C0
3980
3B80
1F80
1F00
0E00
ENDCHAR
STARTCHAR 0077
ENCODING 119
SWIDTH 1062 0
DWIDTH 17 0
BBX 17 10 0 0
BITMAP
E1C380
73E380
737300
737300
777700
777700
777700
373700
3E3E00
1C1C00
ENDCHAR
STARTCHAR 0078
ENCODING 120
SWIDTH 750 0
DWIDTH 12 0
BBX 12 10 0 0
BITMAP
F0E0
79C0
3BC0
1F80
1F00
0F00
1F80
3FC0
39C0
F0F0
ENDCHAR
STARTCHAR 0079
ENCODING 121
SWIDTH 750 0
DWIDTH 12 0
BBX 11 12 0 -2
BITMAP
F0E0
70E0
71C0
39C0
39C0
3F80
1F80
1F80
0700
7F00
7E00
7C00
ENDCHAR
STARTCHAR 007A
ENCODING 122
SWIDTH 687 0
DWIDTH 11 0
BBX 9 10 1 0
BITMAP
FF00
FF80
0380
0780
3F80
FE00
F000
E000
FF80
7F80
ENDCHAR
STARTCHAR 007B
ENCODING 123
SWIDTH 375 0
DWIDTH 6 0
BBX 6 14 0 -2
BITMAP
1C
3C
38
30
30
F0
F0
70
30
30
30
38
3C
1C
ENDCHAR
STARTCHAR 007C
ENCODING 124
SWIDTH 312 0
DWIDTH 5 0
BBX 3 14 1 -2
BITMAP
E0
E0
E0
E0
E0
E0
E0
E0
E0
E0
E0
E0
E0
E0
ENDCHAR
STARTCHAR 007D
ENCODING 125
SWIDTH 375 0
DWIDTH 6 0
BBX 6 14 0 -2
BITMAP
F0
F8
38
38
38
3C
1C
38
38
38
38
38
F8
F0
ENDCHAR
STARTCHAR 007E
ENCODING 126
SWIDTH 875 0
DWIDTH 14 0
BBX 6 3 4 5
BITMAP
E4
FC
9C
ENDCHAR
ENDFONT
